<svg width="21" height="20" viewBox="0 0 21 20" fill="none" xmlns="http://www.w3.org/2000/svg">
<path d="M10.6699 0C5.13992 0 0.669922 4.47 0.669922 10C0.669922 15.53 5.13992 20 10.6699 20C16.1999 20 20.6699 15.53 20.6699 10C20.6699 4.47 16.1999 0 10.6699 0ZM14.9699 14.3C14.5799 14.69 13.9499 14.69 13.5599 14.3L10.6699 11.41L7.77992 14.3C7.38992 14.69 6.75992 14.69 6.36992 14.3C5.97992 13.91 5.97992 13.28 6.36992 12.89L9.25992 10L6.36992 7.11C5.97992 6.72 5.97992 6.09 6.36992 5.7C6.75992 5.31 7.38992 5.31 7.77992 5.7L10.6699 8.59L13.5599 5.7C13.9499 5.31 14.5799 5.31 14.9699 5.7C15.3599 6.09 15.3599 6.72 14.9699 7.11L12.0799 10L14.9699 12.89C15.3499 13.27 15.3499 13.91 14.9699 14.3Z" fill="#DFE1E6"/>
</svg>
