<svg width="20" height="20" viewBox="0 0 20 20" fill="none" xmlns="http://www.w3.org/2000/svg">
<path d="M14.6536 14.6536L14.6536 14.6536L14.6581 14.6489C15.2248 14.0673 15.2313 13.1142 14.6536 12.5364L12.1171 10L14.6536 7.46355C15.2388 6.87829 15.2388 5.93171 14.6536 5.34645C14.0683 4.76118 13.1217 4.76118 12.5364 5.34645L10 7.88289L7.46355 5.34645C6.87829 4.76118 5.93171 4.76118 5.34645 5.34645C4.76118 5.93171 4.76118 6.87829 5.34645 7.46355L7.88289 10L5.34645 12.5364C4.76118 13.1217 4.76118 14.0683 5.34645 14.6536C5.93171 15.2388 6.87829 15.2388 7.46355 14.6536L10 12.1171L12.5364 14.6536C13.1217 15.2388 14.0683 15.2388 14.6536 14.6536ZM0.5 10C0.5 4.74614 4.74614 0.5 10 0.5C15.2539 0.5 19.5 4.74614 19.5 10C19.5 15.2539 15.2539 19.5 10 19.5C4.74614 19.5 0.5 15.2539 0.5 10Z" fill="#FF5630" stroke="#FF5630"/>
</svg>
