<svg width="14" height="18" viewBox="0 0 14 18" fill="none" xmlns="http://www.w3.org/2000/svg">
<path d="M9.12 8.17711L9.82289 8.88L8.05645 10.6464L7.70289 11L8.05645 11.3536L9.82289 13.12L9.12 13.8229L7.35355 12.0564L7 11.7029L6.64645 12.0564L4.88 13.8229L4.17711 13.12L5.94355 11.3536L6.29794 10.9992L5.94272 10.6456L4.16794 8.87917L4.87083 8.17628L6.64728 9.94438L7.00083 10.2963L7.35355 9.94355L9.12 8.17711ZM10.1464 1.35355L10.2929 1.5H10.5H13.5V2.5H0.5V1.5H3.5H3.70711L3.85355 1.35355L4.70711 0.5H9.29289L10.1464 1.35355ZM3 5.5H2.5V6V16V16.5H3H11H11.5V16V6V5.5H11H3ZM3 17.5C2.17614 17.5 1.5 16.8239 1.5 16V4.5H12.5V16C12.5 16.8239 11.8239 17.5 11 17.5H3Z" fill="#2684FF" stroke="#2684FF"/>
</svg>
