<svg width="19" height="18" viewBox="0 0 19 18" fill="none" xmlns="http://www.w3.org/2000/svg">
<path d="M2.92 16.5H3.12711L3.27355 16.3536L12.3336 7.29355L12.6871 6.94L12.3336 6.58645L11.4136 5.66645L11.06 5.31289L10.7064 5.66645L1.64645 14.7264L1.5 14.8729V15.08V16V16.5H2H2.92ZM3.54289 17.5H0.5V14.4571L11.06 3.89711L14.1029 6.94L3.54289 17.5ZM15.0164 0.643553L17.3564 2.98355C17.5512 3.17829 17.5512 3.49171 17.3564 3.68645L15.88 5.16289L12.8371 2.12L14.3136 0.643553C14.4082 0.548924 14.5303 0.5 14.66 0.5C14.799 0.5 14.9181 0.545225 15.0164 0.643553Z" fill="#2684FF" stroke="#2684FF"/>
</svg>
