<svg width="100" height="84" viewBox="0 0 100 84" fill="none" xmlns="http://www.w3.org/2000/svg">
<g clip-path="url(#clip0_1041_230490)">
<path d="M49.8897 82.8848C70.2392 82.8848 86.7358 79.8024 86.7358 76C86.7358 72.1977 70.2392 69.1152 49.8897 69.1152C29.5401 69.1152 13.0435 72.1977 13.0435 76C13.0435 79.8024 29.5401 82.8848 49.8897 82.8848Z" fill="#F5F5F7" fill-opacity="0.8"/>
<path fill-rule="evenodd" clip-rule="evenodd" d="M79.3663 55.7735L66.3636 39.7708C65.7397 39.0175 64.8278 38.5615 63.8674 38.5615H35.9109C34.9511 38.5615 34.0392 39.0175 33.4153 39.7708L20.4131 55.7735V64.1338H79.3669V55.7735H79.3663Z" fill="#AEB8C2"/>
<path fill-rule="evenodd" clip-rule="evenodd" d="M31.4293 17.9072H68.3494C68.926 17.9072 69.4789 18.1363 69.8866 18.544C70.2943 18.9516 70.5233 19.5046 70.5233 20.0811V70.8116C70.5233 71.3881 70.2943 71.9411 69.8866 72.3488C69.4789 72.7565 68.926 72.9855 68.3494 72.9855H31.4293C30.8527 72.9855 30.2998 72.7565 29.8921 72.3488C29.4844 71.9411 29.2554 71.3881 29.2554 70.8116V20.0811C29.2554 19.5046 29.4844 18.9516 29.8921 18.544C30.2998 18.1363 30.8527 17.9072 31.4293 17.9072V17.9072Z" fill="#F5F5F7"/>
<path fill-rule="evenodd" clip-rule="evenodd" d="M36.2381 23.3164H63.5409C63.8291 23.3164 64.1056 23.4309 64.3095 23.6348C64.5133 23.8386 64.6278 24.1151 64.6278 24.4034V37.9669C64.6278 38.2552 64.5133 38.5317 64.3095 38.7355C64.1056 38.9394 63.8291 39.0539 63.5409 39.0539H36.2381C35.9499 39.0539 35.6734 38.9394 35.4695 38.7355C35.2657 38.5317 35.1512 38.2552 35.1512 37.9669V24.4034C35.1512 24.1151 35.2657 23.8386 35.4695 23.6348C35.6734 23.4309 35.9499 23.3164 36.2381 23.3164ZM36.3805 44.9544H63.3985C63.7245 44.9544 64.0372 45.084 64.2677 45.3145C64.4983 45.5451 64.6278 45.8578 64.6278 46.1838C64.6278 46.5098 64.4983 46.8225 64.2677 47.0531C64.0372 47.2836 63.7245 47.4131 63.3985 47.4131H36.3805C36.0545 47.4131 35.7418 47.2836 35.5113 47.0531C35.2807 46.8225 35.1512 46.5098 35.1512 46.1838C35.1512 45.8578 35.2807 45.5451 35.5113 45.3145C35.7418 45.084 36.0545 44.9544 36.3805 44.9544ZM36.3805 51.3474H63.3985C63.7246 51.3474 64.0373 51.4769 64.2679 51.7075C64.4985 51.9381 64.6281 52.2509 64.6281 52.577C64.6281 52.9031 64.4985 53.2159 64.2679 53.4465C64.0373 53.6771 63.7246 53.8066 63.3985 53.8066H36.3805C36.0544 53.8066 35.7417 53.6771 35.5111 53.4465C35.2805 53.2159 35.1509 52.9031 35.1509 52.577C35.1509 52.2509 35.2805 51.9381 35.5111 51.7075C35.7417 51.4769 36.0544 51.3474 36.3805 51.3474ZM79.2463 74.9898C78.8251 76.6588 77.3458 77.9028 75.586 77.9028H24.193C22.4332 77.9028 20.9539 76.6582 20.5333 74.9898C20.453 74.6717 20.4125 74.345 20.4126 74.0169V55.774H34.7159C36.2957 55.774 37.5691 57.1044 37.5691 58.7197V58.7414C37.5691 60.3561 38.8572 61.6599 40.4371 61.6599H59.3419C60.9218 61.6599 62.2099 60.3441 62.2099 58.7289V58.7224C62.2099 57.1072 63.4833 55.7735 65.0631 55.7735H79.3664V74.0175C79.3664 74.3528 79.3246 74.6784 79.2463 74.9898Z" fill="#DCE0E6"/>
<path fill-rule="evenodd" clip-rule="evenodd" d="M81.0439 18.7888L77.332 20.229C77.2366 20.2661 77.1327 20.2755 77.0323 20.2562C76.9318 20.2368 76.8388 20.1895 76.7641 20.1197C76.6893 20.0498 76.6357 19.9603 76.6096 19.8614C76.5834 19.7625 76.5857 19.6582 76.6162 19.5605L77.6689 16.1872C76.2619 14.5872 75.4358 12.6361 75.4358 10.5306C75.4358 5.09857 80.9347 0.695312 87.7184 0.695312C94.5005 0.695312 99.9999 5.09857 99.9999 10.5306C99.9999 15.9627 94.501 20.366 87.7179 20.366C85.257 20.366 82.9657 19.7866 81.0439 18.7888Z" fill="#DCE0E6"/>
<path d="M92.5564 12.3069C93.4116 12.3069 94.1048 11.6219 94.1048 10.777C94.1048 9.93203 93.4116 9.24707 92.5564 9.24707C91.7013 9.24707 91.0081 9.93203 91.0081 10.777C91.0081 11.6219 91.7013 12.3069 92.5564 12.3069Z" fill="white"/>
<path fill-rule="evenodd" clip-rule="evenodd" d="M84.4283 12.1157H81.3315L82.9065 9.43848L84.4283 12.1157ZM86.3636 9.43848H89.0728V12.1157H86.3636V9.43848Z" fill="white"/>
</g>
<defs>
<clipPath id="clip0_1041_230490">
<rect width="100" height="82.6087" fill="white" transform="translate(0 0.695312)"/>
</clipPath>
</defs>
</svg>
