<svg width="24" height="24" viewBox="0 0 24 24" fill="none" xmlns="http://www.w3.org/2000/svg">
<path d="M14 2H6C4.9 2 4.01 2.9 4.01 4L4 20C4 21.1 4.89 22 5.99 22H18C19.1 22 20 21.1 20 20V8L14 2ZM6 20V4H13V9H18V20H6Z" fill="#97A0AE"/>
<path d="M17.1581 10.2842L17.1581 10.2842C16.4201 9.00944 14.5798 9.00944 13.8418 10.2842L13.8418 10.2842L8.50804 19.4996C8.50803 19.4996 8.50802 19.4996 8.50801 19.4996C7.76994 20.7746 8.68966 22.3751 10.1662 22.3751H20.8337C22.3102 22.3751 23.2299 20.7745 22.4918 19.4996L17.1581 10.2842ZM15.4999 16.4168C15.3865 16.4168 15.2916 16.3219 15.2916 16.2084V14.7918C15.2916 14.6783 15.3865 14.5834 15.4999 14.5834C15.6134 14.5834 15.7083 14.6783 15.7083 14.7918V16.2084C15.7083 16.3219 15.6134 16.4168 15.4999 16.4168ZM15.2916 19.2501V18.8334H15.7083V19.2501H15.2916Z" fill="#FFC400" stroke="white"/>
</svg>
