<svg width="25" height="25" viewBox="0 0 25 25" fill="none" xmlns="http://www.w3.org/2000/svg">
<path d="M14 2H6C4.9 2 4.01 2.9 4.01 4L4 20C4 21.1 4.89 22 5.99 22H18C19.1 22 20 21.1 20 20V8L14 2ZM6 20V4H13V9H18V20H6Z" fill="#97A0AE"/>
<path d="M15.8549 16.1467L15.5014 15.7932L15.1478 16.1467L13.1004 18.1941C13.0194 18.2751 12.8897 18.2751 12.8086 18.1941C12.7276 18.1131 12.7276 17.9833 12.8086 17.9023L14.856 15.8549L15.2096 15.5014L14.856 15.1478L12.8086 13.1004C12.7276 13.0194 12.7276 12.8897 12.8086 12.8086C12.8897 12.7276 13.0194 12.7276 13.1004 12.8086L15.1478 14.856L15.5014 15.2096L15.8549 14.856L17.9023 12.8086C17.9833 12.7276 18.1131 12.7276 18.1941 12.8086C18.2751 12.8897 18.2751 13.0194 18.1941 13.1004L16.1467 15.1478L15.7932 15.5014L16.1467 15.8549L18.1941 17.9023C18.2649 17.9731 18.2719 18.1115 18.1918 18.1964C18.1106 18.2751 17.9826 18.2744 17.9023 18.1941L15.8549 16.1467ZM15.5014 7.91699C11.3076 7.91699 7.91699 11.3076 7.91699 15.5014C7.91699 19.6952 11.3076 23.0857 15.5014 23.0857C19.6952 23.0857 23.0857 19.6952 23.0857 15.5014C23.0857 11.3076 19.6952 7.91699 15.5014 7.91699Z" fill="#FF8B00" stroke="white"/>
<circle cx="15.25" cy="15.25" r="6" fill="#FF8B00"/>
<rect x="14.35" y="17.35" width="2.3" height="2.3" fill="white" stroke="#FFC400" stroke-width="0.7"/>
<rect x="14.35" y="11.35" width="2.3" height="5.3" rx="1.15" fill="white" stroke="#FFC400" stroke-width="0.7"/>
<path d="M15 20.5L18.5 20L17.5625 12.5L17.5 10.5H13.5L13 12L12 17L13 19.5L15 20.5Z" fill="#FF8B00"/>
<path d="M14.2938 18.0535L14.2938 18.0535L14.298 18.054C15.1328 18.1552 15.7185 17.7138 15.9819 17.1511C16.2206 16.6407 16.2274 15.9367 15.813 15.48C15.5726 15.2151 15.0061 14.5474 14.9009 13.7941C14.8516 13.441 14.9038 13.0689 15.1559 12.69C15.2687 12.5204 15.4265 12.3422 15.6437 12.1612C15.6405 12.2096 15.6387 12.2585 15.6385 12.308C15.6348 13.0314 15.9581 13.8005 16.8182 14.4475C17.7653 15.1599 18.4003 15.673 18.7508 16.2377C19.0691 16.7506 19.174 17.3481 18.8966 18.3083C18.7506 18.8138 18.2346 19.3517 17.4043 19.6733C16.5895 19.9889 15.5298 20.0682 14.4133 19.7076C12.948 19.2342 12.5174 18.4554 12.5005 17.8147C12.4922 17.4975 12.5821 17.1701 12.7489 16.8689C12.8227 17.1431 12.9718 17.4111 13.2274 17.6265C13.4994 17.8556 13.858 17.997 14.2938 18.0535Z" fill="white" stroke="white" stroke-linejoin="bevel"/>
</svg>
