<svg width="12" height="24" viewBox="0 0 12 24" fill="none" xmlns="http://www.w3.org/2000/svg">
<g clip-path="url(#clip0_1586_180553)">
<rect width="12" height="24" rx="4" fill="#F4F5F7"/>
<path d="M5.24295 2.29317L0.314094 6.89362C-0.104698 7.28451 -0.104698 7.91595 0.314094 8.30683C0.732886 8.69772 1.4094 8.69772 1.82819 8.30683L6.00537 4.418L10.1718 8.30683C10.5906 8.69772 11.2671 8.69772 11.6859 8.30683C12.1047 7.91595 12.1047 7.28451 11.6859 6.89362L6.75705 2.29317C6.34899 1.90228 5.66175 1.90228 5.24295 2.29317Z" fill="#0065FF"/>
<path d="M10.1611 15.3135L5.99463 19.4727L1.82819 15.3135C1.4094 14.8955 0.732886 14.8955 0.314094 15.3135C-0.104698 15.7316 -0.104698 16.4069 0.314094 16.825L5.24295 21.7453C5.66175 22.1633 6.33826 22.1633 6.75705 21.7453L11.6859 16.825C12.1047 16.4069 12.1047 15.7316 11.6859 15.3135C11.2671 14.9062 10.5799 14.8955 10.1611 15.3135V15.3135Z" fill="#97A0AE"/>
</g>
<defs>
<clipPath id="clip0_1586_180553">
<rect width="12" height="24" rx="4" fill="white"/>
</clipPath>
</defs>
</svg>
